<?xml version="1.0" standalone="no"?>
<!DOCTYPE svg PUBLIC "-//W3C//DTD SVG 20010904//EN"
 "http://www.w3.org/TR/2001/REC-SVG-20010904/DTD/svg10.dtd">
<svg version="1.0" xmlns="http://www.w3.org/2000/svg"
 width="180.000000pt" height="180.000000pt" viewBox="0 0 180.000000 180.000000"
 preserveAspectRatio="xMidYMid meet">
<metadata>
Created by potrace 1.14, written by Peter Selinger 2001-2017
</metadata>
<g transform="translate(0.000000,180.000000) scale(0.100000,-0.100000)"
fill="#000000" stroke="none">
<path d="M0 900 l0 -900 900 0 900 0 0 900 0 900 -900 0 -900 0 0 -900z m889
792 c119 -43 191 -108 245 -222 28 -59 31 -74 31 -165 0 -82 -4 -109 -22 -149
-36 -77 -75 -131 -121 -166 l-43 -33 55 -30 c57 -30 66 -38 116 -97 76 -88
112 -228 91 -351 -14 -85 -65 -198 -114 -255 -39 -45 -131 -95 -222 -121 -51
-14 -120 -17 -447 -21 l-388 -3 0 821 0 821 378 -3 c363 -3 379 -4 441 -26z"/>
<path d="M280 1280 l0 -252 258 7 c225 6 263 10 305 27 92 40 133 117 125 238
-8 108 -60 182 -148 208 -19 6 -149 14 -287 17 l-253 7 0 -252z"/>
<path d="M280 555 l0 -285 271 4 c306 6 341 12 404 74 133 130 101 376 -57
449 -63 30 -89 32 -365 38 l-253 6 0 -286z"/>
</g>
</svg>
